<?xml version="1.0" encoding="utf-8"?>
<!-- Generator: Adobe Illustrator 23.0.3, SVG Export Plug-In . SVG Version: 6.00 Build 0)  -->
<svg version="1.1" id="Layer_1" xmlns="http://www.w3.org/2000/svg" xmlns:xlink="http://www.w3.org/1999/xlink" x="0px" y="0px"
	 viewBox="0 0 1600 182" style="enable-background:new 0 0 1600 182;" xml:space="preserve">
<style type="text/css">
	.st0{opacity:0.74;fill:#2487D9;}
	.st1{opacity:0.24;fill:#FFFFFF;}
	.st2{fill:#FFFFFF;}
	.st3{opacity:0.16;fill:#2487D9;}
</style>
<path class="st0" d="M1127.7,155.6c73.7-3,148.3-7.4,223.9-13.3c81.9-6.4,164.8-14.4,248.4-24.3v-46c-171,41.7-339.5,68.9-502,82.1
	C1107.8,154.7,1117.8,155.2,1127.7,155.6z"/>
<path class="st1" d="M877,156.7c-7.7-0.4-15.4-0.8-23.1-1.2C539.2,138.6,247.2,88.4,0,6.1v88.7C248.6,147.5,549.6,170,877,156.7z"/>
<path class="st2" d="M1351.6,142.4c-75.6,5.9-150.2,10.3-223.9,13.3C706.7,172.8,319.7,143.8,0,76v2.1V177h1600v-38.8v-20.1
	C1516.3,127.9,1433.5,136,1351.6,142.4z"/>
<path class="st3" d="M1127.7,155.6c-9.9-0.2-19.8-0.5-29.7-0.8C693.3,144,317.9,111.7,0,58.8v57
	C319.7,149.7,706.7,164.2,1127.7,155.6z"/>
</svg>
